<mxfile host="Electron" modified="2023-04-16T09:50:48.758Z" agent="Mozilla/5.0 (Windows NT 10.0; Win64; x64) AppleWebKit/537.36 (KHTML, like Gecko) draw.io/21.1.2 Chrome/106.0.5249.199 Electron/21.4.3 Safari/537.36" etag="wCn7XSS-Ai9nc6pZwqHo" version="21.1.2" type="device">
  <diagram name="Page-1" id="KBW3ugEOn-Q8geGjZRpk">
    <mxGraphModel dx="1263" dy="1747" grid="0" gridSize="10" guides="1" tooltips="1" connect="1" arrows="1" fold="1" page="0" pageScale="1" pageWidth="850" pageHeight="1100" math="0" shadow="0">
      <root>
        <mxCell id="0" />
        <mxCell id="1" parent="0" />
        <mxCell id="JtZdGqvp9lfBUKnp-gQf-47" value="&lt;div&gt;&lt;span style=&quot;background-color: initial;&quot;&gt;u8 BTN_u8GetBTNState&lt;/span&gt;&lt;br&gt;&lt;/div&gt;" style="text;whiteSpace=wrap;html=1;fontSize=16;" parent="1" vertex="1">
          <mxGeometry x="-343" y="-1000" width="193" height="41" as="geometry" />
        </mxCell>
        <mxCell id="JtZdGqvp9lfBUKnp-gQf-48" style="edgeStyle=none;curved=1;rounded=0;orthogonalLoop=1;jettySize=auto;html=1;fontSize=12;startSize=8;endSize=8;" parent="1" source="JtZdGqvp9lfBUKnp-gQf-49" target="JtZdGqvp9lfBUKnp-gQf-51" edge="1">
          <mxGeometry relative="1" as="geometry" />
        </mxCell>
        <UserObject label="" Function="EN_DIO_Error_T DIO_init(uint8_t pinNumber, EN_DIO_PORT_T portNumber, EN_DIO_DIRECTION_T direction);" tags="Flowchart" id="JtZdGqvp9lfBUKnp-gQf-49">
          <mxCell style="vsdxID=219;fillColor=#fff2cc;shape=stencil(UzV2Ls5ILEhVNTIoLinKz04tz0wpyVA1dlE1MsrMy0gtyiwBslSNXVWNndPyi1LTi/JL81Ig/IJEkEoQKze/DGRCBUSfAUiHkUElhGcK4bpBVOZk5iGpNEVVikeloQHZpsK0YlWLz1QgA+HFtMycHEgIIcujBwlQCBKcxq4A);strokeColor=#d6b656;spacingTop=-1;spacingBottom=-1;spacingLeft=-1;spacingRight=-1;points=[[0,0.5,0],[1,0.5,0],[0.5,0,0],[0.5,1,0]];labelBackgroundColor=none;rounded=1;html=1;whiteSpace=wrap;fontFamily=Calibri;" parent="1" vertex="1">
            <mxGeometry x="-326.76" y="-839" width="101" height="76" as="geometry" />
          </mxCell>
        </UserObject>
        <mxCell id="JtZdGqvp9lfBUKnp-gQf-50" value="&lt;div style=&quot;font-size: 11.29px;&quot;&gt;&lt;i&gt;BTNId&lt;/i&gt;&amp;nbsp;is from&amp;nbsp;&lt;/div&gt;&lt;div style=&quot;font-size: 11.29px;&quot;&gt;&lt;i&gt;0&lt;/i&gt;&amp;nbsp;to &lt;i&gt;7&lt;/i&gt;&lt;/div&gt;" style="text;vsdxID=219;fillColor=none;gradientColor=none;strokeColor=none;spacingTop=-1;spacingBottom=-1;spacingLeft=-1;spacingRight=-1;points=[[0,0.5,0],[1,0.5,0],[0.5,0,0],[0.5,1,0]];labelBackgroundColor=none;rounded=1;html=1;whiteSpace=wrap;verticalAlign=middle;align=center;overflow=width;;html=1;fontColor=#000000;fontFamily=Calibri;" parent="JtZdGqvp9lfBUKnp-gQf-49" vertex="1">
          <mxGeometry x="8.17" y="12.5" width="84.67" height="57.15" as="geometry" />
        </mxCell>
        <UserObject label="" Function="EN_DIO_Error_T DIO_init(uint8_t pinNumber, EN_DIO_PORT_T portNumber, EN_DIO_DIRECTION_T direction);" tags="Flowchart" id="JtZdGqvp9lfBUKnp-gQf-51">
          <mxCell style="vsdxID=219;fillColor=#fff2cc;shape=stencil(UzV2Ls5ILEhVNTIoLinKz04tz0wpyVA1dlE1MsrMy0gtyiwBslSNXVWNndPyi1LTi/JL81Ig/IJEkEoQKze/DGRCBUSfAUiHkUElhGcK4bpBVOZk5iGpNEVVikeloQHZpsK0YlWLz1QgA+HFtMycHEgIIcujBwlQCBKcxq4A);strokeColor=#d6b656;spacingTop=-1;spacingBottom=-1;spacingLeft=-1;spacingRight=-1;points=[[0,0.5,0],[1,0.5,0],[0.5,0,0],[0.5,1,0]];labelBackgroundColor=none;rounded=1;html=1;whiteSpace=wrap;fontFamily=Calibri;" parent="1" vertex="1">
            <mxGeometry x="-326" y="-718" width="101" height="76" as="geometry" />
          </mxCell>
        </UserObject>
        <mxCell id="JtZdGqvp9lfBUKnp-gQf-52" style="edgeStyle=none;curved=1;rounded=0;orthogonalLoop=1;jettySize=auto;html=1;fontSize=12;startSize=8;endSize=8;exitX=1;exitY=0.5;exitDx=0;exitDy=0;exitPerimeter=0;" parent="JtZdGqvp9lfBUKnp-gQf-51" source="JtZdGqvp9lfBUKnp-gQf-51" edge="1">
          <mxGeometry relative="1" as="geometry">
            <mxPoint x="244.75" y="38" as="targetPoint" />
          </mxGeometry>
        </mxCell>
        <mxCell id="JtZdGqvp9lfBUKnp-gQf-53" value="&lt;div style=&quot;font-size: 11.29px;&quot;&gt;&lt;i&gt;ReturnedBTNState&lt;/i&gt; pointer is &lt;i&gt;NULL&lt;/i&gt;&lt;/div&gt;" style="text;vsdxID=219;fillColor=none;gradientColor=none;strokeColor=none;spacingTop=-1;spacingBottom=-1;spacingLeft=-1;spacingRight=-1;points=[[0,0.5,0],[1,0.5,0],[0.5,0,0],[0.5,1,0]];labelBackgroundColor=none;rounded=1;html=1;whiteSpace=wrap;verticalAlign=middle;align=center;overflow=width;;html=1;fontColor=#000000;fontFamily=Calibri;" parent="JtZdGqvp9lfBUKnp-gQf-51" vertex="1">
          <mxGeometry x="11" y="12" width="84.67" height="57.15" as="geometry" />
        </mxCell>
        <mxCell id="JtZdGqvp9lfBUKnp-gQf-54" style="edgeStyle=none;curved=1;rounded=0;orthogonalLoop=1;jettySize=auto;html=1;entryX=0.5;entryY=0;entryDx=0;entryDy=0;entryPerimeter=0;fontSize=12;startSize=8;endSize=8;" parent="1" source="JtZdGqvp9lfBUKnp-gQf-55" target="JtZdGqvp9lfBUKnp-gQf-56" edge="1">
          <mxGeometry relative="1" as="geometry" />
        </mxCell>
        <UserObject label="&lt;div style=&quot;&quot;&gt;Get the required&amp;nbsp;&lt;i style=&quot;border-color: var(--border-color); font-size: 11.29px;&quot;&gt;BTNId Value&lt;/i&gt;&lt;span style=&quot;font-size: 11.29px;&quot;&gt;&amp;nbsp;using&amp;nbsp;&lt;/span&gt;&lt;/div&gt;&lt;i&gt;DIO_u8GetPinValue&amp;nbsp;&lt;/i&gt;&lt;span style=&quot;font-size: 11.29px; background-color: initial;&quot;&gt;function&lt;/span&gt;&lt;i&gt;&lt;br&gt;&lt;/i&gt;" Function="EN_DIO_Error_T DIO_toggle(uint8_t pinNumber, EN_DIO_PORT_T portNumber);  " tags="Flowchart" id="JtZdGqvp9lfBUKnp-gQf-55">
          <mxCell style="verticalAlign=middle;align=center;overflow=width;vsdxID=274;fillColor=#d5e8d4;shape=stencil(nZBLDoAgDERP0z3SIyjew0SURgSD+Lu9kMZoXLhwN9O+tukAlrNpJg1SzDH4QW/URgNYgZTkjA4UkwJUgGXng+6DX1zLfmoymdXo17xh5zmRJ6Q42BWCfc2oJfdAr+Yv+AP9Cb7OJ3H/2JG1HNGz/84klThPVCc=);strokeColor=#82b366;spacingTop=-1;spacingBottom=-1;spacingLeft=-1;spacingRight=-1;points=[[0,0.5,0],[1,0.5,0],[0.5,1,0],[0.5,0,0]];labelBackgroundColor=none;rounded=1;html=1;whiteSpace=wrap;fontFamily=Calibri;" parent="1" vertex="1">
            <mxGeometry x="-356.76" y="-591" width="161.01" height="51" as="geometry" />
          </mxCell>
        </UserObject>
        <UserObject label="&lt;div style=&quot;font-size: 1px&quot;&gt;&lt;font style=&quot;font-size: 11.29px; direction: ltr; letter-spacing: 0px; line-height: 120%; opacity: 1;&quot;&gt;Return&amp;nbsp;&lt;i&gt;STD_TYPES_OK&lt;/i&gt;&lt;br&gt;&lt;/font&gt;&lt;/div&gt;" Function="EN_DIO_Error_T DIO_init(uint8_t pinNumber, EN_DIO_PORT_T portNumber, EN_DIO_DIRECTION_T direction);" tags="Flowchart" id="JtZdGqvp9lfBUKnp-gQf-56">
          <mxCell style="verticalAlign=middle;align=center;overflow=width;vsdxID=30;shape=stencil(tVLREoIgEPwaHnEQxsl3s/9gEpSJwDko7e+DsEkze2l627vdu5uFRaxyHe8FosR5sCcxqMZ3iO0Rpcp0ApQPCLEasUpaEC3Yi2lS3fOojOhsr3HDmObyMtsVcYqS29Qh5FEfklwrM5OXeUa/yjkcAwfr7TDpiyTfXvjkMR+Vw2A998qaBac5tAKHU1hq3i4oNwjRr9ofvayt/+Rk+yX/4iWA159KpXWKxJx/z0Bopfyw+g4=);spacingTop=-1;spacingBottom=-1;spacingLeft=-1;spacingRight=-1;points=[[0.5,1,0],[0.5,0,0],[0,0.5,0],[1,0.5,0]];labelBackgroundColor=none;rounded=1;html=1;whiteSpace=wrap;fontFamily=Calibri;fillColor=#d5e8d4;strokeColor=#82b366;" parent="1" vertex="1">
            <mxGeometry x="-337.75" y="-486" width="123" height="38" as="geometry" />
          </mxCell>
        </UserObject>
        <mxCell id="JtZdGqvp9lfBUKnp-gQf-57" style="edgeStyle=none;curved=1;rounded=0;orthogonalLoop=1;jettySize=auto;html=1;fontSize=12;startSize=8;endSize=8;exitX=0.5;exitY=1;exitDx=0;exitDy=0;exitPerimeter=0;entryX=0.5;entryY=0;entryDx=0;entryDy=0;entryPerimeter=0;" parent="1" source="JtZdGqvp9lfBUKnp-gQf-51" target="JtZdGqvp9lfBUKnp-gQf-55" edge="1">
          <mxGeometry relative="1" as="geometry">
            <mxPoint x="-274.76" y="-635" as="sourcePoint" />
            <mxPoint x="-276.59000000000003" y="-593" as="targetPoint" />
          </mxGeometry>
        </mxCell>
        <UserObject label="&lt;div style=&quot;font-size: 1px&quot;&gt;&lt;font style=&quot;font-size: 11.29px; direction: ltr; letter-spacing: 0px; line-height: 120%; opacity: 1;&quot;&gt;Start&lt;/font&gt;&lt;/div&gt;" Function="EN_DIO_Error_T DIO_init(uint8_t pinNumber, EN_DIO_PORT_T portNumber, EN_DIO_DIRECTION_T direction);" tags="Flowchart" id="JtZdGqvp9lfBUKnp-gQf-58">
          <mxCell style="verticalAlign=middle;align=center;overflow=width;vsdxID=30;shape=stencil(tVLREoIgEPwaHnEQxsl3s/9gEpSJwDko7e+DsEkze2l627vdu5uFRaxyHe8FosR5sCcxqMZ3iO0Rpcp0ApQPCLEasUpaEC3Yi2lS3fOojOhsr3HDmObyMtsVcYqS29Qh5FEfklwrM5OXeUa/yjkcAwfr7TDpiyTfXvjkMR+Vw2A998qaBac5tAKHU1hq3i4oNwjRr9ofvayt/+Rk+yX/4iWA159KpXWKxJx/z0Bopfyw+g4=);spacingTop=-1;spacingBottom=-1;spacingLeft=-1;spacingRight=-1;points=[[0.5,1,0],[0.5,0,0],[0,0.5,0],[1,0.5,0]];labelBackgroundColor=none;rounded=1;html=1;whiteSpace=wrap;fontFamily=Calibri;fillColor=#dae8fc;strokeColor=#6c8ebf;" parent="1" vertex="1">
            <mxGeometry x="-337.75" y="-923" width="123" height="38" as="geometry" />
          </mxCell>
        </UserObject>
        <mxCell id="JtZdGqvp9lfBUKnp-gQf-59" style="edgeStyle=none;curved=1;rounded=0;orthogonalLoop=1;jettySize=auto;html=1;fontSize=12;startSize=8;endSize=8;exitX=0.5;exitY=1;exitDx=0;exitDy=0;exitPerimeter=0;entryX=0.5;entryY=0;entryDx=0;entryDy=0;entryPerimeter=0;" parent="1" source="JtZdGqvp9lfBUKnp-gQf-58" target="JtZdGqvp9lfBUKnp-gQf-49" edge="1">
          <mxGeometry relative="1" as="geometry">
            <mxPoint x="-277.76" y="-884" as="sourcePoint" />
            <mxPoint x="-276.6" y="-839" as="targetPoint" />
          </mxGeometry>
        </mxCell>
        <UserObject label="&lt;div style=&quot;font-size: 1px&quot;&gt;&lt;font style=&quot;font-size: 11.29px; direction: ltr; letter-spacing: 0px; line-height: 120%; opacity: 1;&quot;&gt;Return&amp;nbsp;&lt;i&gt;STD_TYPES_NOK&lt;/i&gt;&lt;br&gt;&lt;/font&gt;&lt;/div&gt;" Function="EN_DIO_Error_T DIO_init(uint8_t pinNumber, EN_DIO_PORT_T portNumber, EN_DIO_DIRECTION_T direction);" tags="Flowchart" id="JtZdGqvp9lfBUKnp-gQf-60">
          <mxCell style="verticalAlign=middle;align=center;overflow=width;vsdxID=30;shape=stencil(tVLREoIgEPwaHnEQxsl3s/9gEpSJwDko7e+DsEkze2l627vdu5uFRaxyHe8FosR5sCcxqMZ3iO0Rpcp0ApQPCLEasUpaEC3Yi2lS3fOojOhsr3HDmObyMtsVcYqS29Qh5FEfklwrM5OXeUa/yjkcAwfr7TDpiyTfXvjkMR+Vw2A998qaBac5tAKHU1hq3i4oNwjRr9ofvayt/+Rk+yX/4iWA159KpXWKxJx/z0Bopfyw+g4=);spacingTop=-1;spacingBottom=-1;spacingLeft=-1;spacingRight=-1;points=[[0.5,1,0],[0.5,0,0],[0,0.5,0],[1,0.5,0]];labelBackgroundColor=none;rounded=1;html=1;whiteSpace=wrap;fontFamily=Calibri;fillColor=#f8cecc;strokeColor=#b85450;" parent="1" vertex="1">
            <mxGeometry x="-142" y="-584.5" width="123" height="38" as="geometry" />
          </mxCell>
        </UserObject>
        <mxCell id="JtZdGqvp9lfBUKnp-gQf-61" style="edgeStyle=orthogonalEdgeStyle;rounded=1;orthogonalLoop=1;jettySize=auto;html=1;fontSize=12;startSize=8;endSize=8;fontFamily=Calibri;entryX=0.5;entryY=0;entryDx=0;entryDy=0;entryPerimeter=0;exitX=1;exitY=0.5;exitDx=0;exitDy=0;exitPerimeter=0;" parent="1" source="JtZdGqvp9lfBUKnp-gQf-49" target="JtZdGqvp9lfBUKnp-gQf-60" edge="1">
          <mxGeometry relative="1" as="geometry">
            <mxPoint x="-104" y="-754" as="sourcePoint" />
            <mxPoint x="-370" y="-1326" as="targetPoint" />
          </mxGeometry>
        </mxCell>
        <mxCell id="JtZdGqvp9lfBUKnp-gQf-62" value="&lt;font style=&quot;font-size: 11px;&quot;&gt;False&lt;/font&gt;" style="text;html=1;align=center;verticalAlign=middle;resizable=0;points=[];autosize=1;strokeColor=none;fillColor=none;fontSize=16;" parent="1" vertex="1">
          <mxGeometry x="-194" y="-828" width="45" height="31" as="geometry" />
        </mxCell>
        <mxCell id="JtZdGqvp9lfBUKnp-gQf-63" value="&lt;font style=&quot;font-size: 11px;&quot;&gt;False&lt;/font&gt;" style="text;html=1;align=center;verticalAlign=middle;resizable=0;points=[];autosize=1;strokeColor=none;fillColor=none;fontSize=16;" parent="1" vertex="1">
          <mxGeometry x="-191" y="-705" width="45" height="31" as="geometry" />
        </mxCell>
      </root>
    </mxGraphModel>
  </diagram>
</mxfile>
